<?xml version="1.0" encoding="utf-8"?>
<!-- Generator: Adobe Illustrator 17.0.0, SVG Export Plug-In . SVG Version: 6.00 Build 0)  -->
<!DOCTYPE svg PUBLIC "-//W3C//DTD SVG 1.1//EN" "http://www.w3.org/Graphics/SVG/1.1/DTD/svg11.dtd">
<svg version="1.1" id="Capa_1" xmlns="http://www.w3.org/2000/svg" xmlns:xlink="http://www.w3.org/1999/xlink" x="0px" y="0px"
	 width="54.167px" height="50px" viewBox="-14.167 -10 54.167 50" enable-background="new -14.167 -10 54.167 50"
	 xml:space="preserve">
<g>
	<path fill="#555555" d="M78.842,64.065c1.372,1.367,2.262,3.217,2.402,5.275H64.756c0.14-2.058,1.032-3.908,2.402-5.275
		c1.494-1.497,3.56-2.422,5.842-2.422C75.281,61.643,77.347,62.568,78.842,64.065L78.842,64.065z"/>
	<path fill="#555555" d="M76.435,52.217c0.881,0.878,1.423,2.095,1.423,3.435c0,1.343-0.542,2.558-1.421,3.439h-0.002
		c-0.878,0.878-2.095,1.421-3.435,1.421c-1.343,0-2.558-0.543-3.436-1.421c-0.88-0.881-1.423-2.097-1.423-3.439
		c0-1.341,0.543-2.558,1.423-3.435c0.879-0.879,2.093-1.423,3.436-1.423C74.341,50.794,75.558,51.338,76.435,52.217L76.435,52.217z"
		/>
</g>
<text transform="matrix(1 0 0 1 291.8333 386)"><tspan x="0" y="0" font-family="'MyriadPro-Regular'" font-size="12">    background-image: url(../img/webchekin.svg);</tspan><tspan x="0" y="14.4" font-family="'MyriadPro-Regular'" font-size="12">    background-repeat: no-repeat;</tspan><tspan x="0" y="28.8" font-family="'MyriadPro-Regular'" font-size="12">    top: 35%;</tspan><tspan x="0" y="43.2" font-family="'MyriadPro-Regular'" font-size="12">    line-height: 40px;</tspan><tspan x="0" y="57.6" font-family="'MyriadPro-Regular'" font-size="12">    float: left;</tspan><tspan x="0" y="72" font-family="'MyriadPro-Regular'" font-size="12">    width: 210px;</tspan><tspan x="0" y="86.4" font-family="'MyriadPro-Regular'" font-size="12">    height: 65px;</tspan><tspan x="0" y="100.8" font-family="'MyriadPro-Regular'" font-size="12">    display: -webkit-box;</tspan><tspan x="0" y="115.2" font-family="'MyriadPro-Regular'" font-size="12">    display: -webkit-flex;</tspan><tspan x="0" y="129.6" font-family="'MyriadPro-Regular'" font-size="12">    display: -ms-flexbox;</tspan><tspan x="0" y="144" font-family="'MyriadPro-Regular'" font-size="12">    display: flex;</tspan><tspan x="0" y="158.4" font-family="'MyriadPro-Regular'" font-size="12">    -webkit-flex-flow: row wrap;</tspan><tspan x="0" y="172.8" font-family="'MyriadPro-Regular'" font-size="12">    -ms-flex-flow: row wrap;</tspan><tspan x="0" y="187.2" font-family="'MyriadPro-Regular'" font-size="12">    flex-flow: row wrap;</tspan><tspan x="0" y="201.6" font-family="'MyriadPro-Regular'" font-size="12">    margin-left: 0;</tspan><tspan x="0" y="216" font-family="'MyriadPro-Regular'" font-size="12">    position: absolute;</tspan><tspan x="0" y="230.4" font-family="'MyriadPro-Regular'" font-size="12">}</tspan></text>
<path fill="#555555" d="M5.78,28.021"/>
<path fill="#555555" d="M16.468,21.795c-0.114-1.091-0.918-5.854-1.206-7.543c0.852-0.832,1.55-1.509,1.748-1.687
	c0.592-0.529,1.846-2.535,1.234-3.147s-2.619,0.642-3.148,1.234c-0.177,0.198-0.854,0.896-1.686,1.749
	c-1.689-0.289-6.452-1.092-7.543-1.206c-0.133-0.013-0.265,0.033-0.359,0.127l-0.56,0.561c-0.024,0.024-0.036,0.058-0.032,0.091
	c0.004,0.034,0.024,0.064,0.053,0.081l4.718,2.839l0.7,0.592c-0.581,0.593-0.999,1.022-1.072,1.104
	c-0.108,0.12-0.504,0.73-0.926,1.433c-0.402-0.152-2.386-0.894-2.924-1.064c-0.079-0.025-0.165-0.004-0.223,0.055
	c-0.071,0.072-0.171,0.171-0.243,0.242c-0.023,0.024-0.035,0.055-0.032,0.089c0.003,0.032,0.02,0.061,0.047,0.081
	c0.419,0.294,1.954,1.378,2.63,1.903c-0.312,0.585-0.52,1.053-0.442,1.131c0.077,0.077,0.545-0.13,1.131-0.441
	c0.524,0.676,1.607,2.211,1.903,2.63c0.019,0.027,0.048,0.044,0.081,0.046c0.032,0.004,0.065-0.008,0.088-0.031l0.243-0.243
	c0.058-0.059,0.079-0.145,0.054-0.223c-0.17-0.539-0.913-2.523-1.063-2.924c0.702-0.422,1.312-0.818,1.433-0.926
	c0.145-0.13,1.396-1.358,2.718-2.654l0.041,0.042c0.149,0.148,0.149,0.391,0,0.539l-1.355,1.356l0.292,0.345l2.839,4.718
	c0.018,0.029,0.047,0.048,0.081,0.052c0.034,0.004,0.068-0.007,0.092-0.031c0.14-0.14,0.397-0.398,0.56-0.56
	C16.435,22.06,16.482,21.928,16.468,21.795z"/>
<circle fill="none" stroke="#555555" stroke-width="2" stroke-miterlimit="10" cx="11.663" cy="16.017" r="17.026"/>
<g>
	<rect x="9.625" y="-6.104" fill="#555555" width="4" height="2.708"/>
	<rect x="10.913" y="-3.896" fill="#555555" width="1.5" height="2.271"/>
</g>
<g>
	
		<rect x="-2.051" y="-0.795" transform="matrix(0.7426 -0.6698 0.6698 0.7426 -0.2969 -0.2806)" fill="#555555" width="3.075" height="2.082"/>
	
		<rect x="-0.044" y="0.489" transform="matrix(0.7426 -0.6698 0.6698 0.7426 -0.7753 0.7075)" fill="#555555" width="1.153" height="1.746"/>
</g>
<path fill="#555555" d="M12.125,4.403c0,0.276-0.224,0.5-0.5,0.5l0,0c-0.276,0-0.5-0.224-0.5-0.5V2.549c0-0.276,0.224-0.5,0.5-0.5
	l0,0c0.276,0,0.5,0.224,0.5,0.5V4.403z"/>
<path fill="#555555" d="M12.125,31.052c0,0.276-0.224,0.5-0.5,0.5l0,0c-0.276,0-0.5-0.224-0.5-0.5v-1.854c0-0.276,0.224-0.5,0.5-0.5
	l0,0c0.276,0,0.5,0.224,0.5,0.5V31.052z"/>
<g>
	<path fill="#555555" d="M24.036,16c-0.276,0-0.5-0.224-0.5-0.5l0,0c0-0.276,0.224-0.5,0.5-0.5h1.854c0.276,0,0.5,0.224,0.5,0.5l0,0
		c0,0.276-0.224,0.5-0.5,0.5H24.036z"/>
	<path fill="#555555" d="M-1.64,16c-0.276,0-0.5-0.224-0.5-0.5l0,0c0-0.276,0.224-0.5,0.5-0.5h1.854c0.276,0,0.5,0.224,0.5,0.5l0,0
		c0,0.276-0.224,0.5-0.5,0.5H-1.64z"/>
</g>
</svg>
